<mxfile host="app.diagrams.net" modified="2021-01-31T18:14:08.048Z" agent="5.0 (Windows)" etag="DuGwrVf686PmxBipl-Cr" version="14.2.7" type="github">
  <diagram id="9AUTSeqywhxO679KxUz8" name="Page-1">
    <mxGraphModel dx="1038" dy="547" grid="1" gridSize="10" guides="1" tooltips="1" connect="1" arrows="1" fold="1" page="1" pageScale="1" pageWidth="1169" pageHeight="827" math="0" shadow="0">
      <root>
        <mxCell id="0" />
        <mxCell id="1" parent="0" />
        <mxCell id="5i5uavK7HOHlnxQsCkVr-1" value="Data collection tools and Experimental sites" style="swimlane;startSize=23;" parent="1" vertex="1">
          <mxGeometry x="10" y="10" width="460" height="730" as="geometry" />
        </mxCell>
        <mxCell id="5i5uavK7HOHlnxQsCkVr-2" value="Start" style="rounded=1;whiteSpace=wrap;html=1;" parent="5i5uavK7HOHlnxQsCkVr-1" vertex="1">
          <mxGeometry x="165" y="56" width="100" height="50" as="geometry" />
        </mxCell>
        <mxCell id="5i5uavK7HOHlnxQsCkVr-5" value="PI/RS design/develop and review data collection tools/templates/spreadsheet for experiments, surveys and action/qualitative research in consultation with Biometrics and GIS before field work" style="rounded=0;whiteSpace=wrap;html=1;" parent="5i5uavK7HOHlnxQsCkVr-1" vertex="1">
          <mxGeometry x="100" y="186" width="230" height="110" as="geometry" />
        </mxCell>
        <mxCell id="5i5uavK7HOHlnxQsCkVr-4" value="" style="edgeStyle=orthogonalEdgeStyle;rounded=0;orthogonalLoop=1;jettySize=auto;html=1;" parent="5i5uavK7HOHlnxQsCkVr-1" source="5i5uavK7HOHlnxQsCkVr-2" target="5i5uavK7HOHlnxQsCkVr-5" edge="1">
          <mxGeometry relative="1" as="geometry">
            <mxPoint x="215" y="181" as="targetPoint" />
          </mxGeometry>
        </mxCell>
        <mxCell id="5i5uavK7HOHlnxQsCkVr-6" value="PI/RS fills online requisition for experimental sites such as laboratory space/or glass house/or field site" style="whiteSpace=wrap;html=1;rounded=0;" parent="5i5uavK7HOHlnxQsCkVr-1" vertex="1">
          <mxGeometry x="120" y="370" width="190" height="76" as="geometry" />
        </mxCell>
        <mxCell id="5i5uavK7HOHlnxQsCkVr-7" value="" style="edgeStyle=orthogonalEdgeStyle;rounded=0;orthogonalLoop=1;jettySize=auto;html=1;" parent="5i5uavK7HOHlnxQsCkVr-1" source="5i5uavK7HOHlnxQsCkVr-5" target="5i5uavK7HOHlnxQsCkVr-6" edge="1">
          <mxGeometry relative="1" as="geometry" />
        </mxCell>
        <mxCell id="uFXR2dPNcjkIclZkE1A9-1" value="End" style="rounded=1;whiteSpace=wrap;html=1;" vertex="1" parent="5i5uavK7HOHlnxQsCkVr-1">
          <mxGeometry x="165" y="670" width="100" height="50" as="geometry" />
        </mxCell>
        <mxCell id="5i5uavK7HOHlnxQsCkVr-11" value="" style="edgeStyle=orthogonalEdgeStyle;rounded=0;orthogonalLoop=1;jettySize=auto;html=1;entryX=0.5;entryY=0;entryDx=0;entryDy=0;" parent="1" source="5i5uavK7HOHlnxQsCkVr-8" target="uFXR2dPNcjkIclZkE1A9-1" edge="1">
          <mxGeometry relative="1" as="geometry">
            <mxPoint x="225" y="686" as="targetPoint" />
          </mxGeometry>
        </mxCell>
        <mxCell id="5i5uavK7HOHlnxQsCkVr-8" value="RD, DRD and Laboratory Coordinator (LC) receive, approve and allocate laboratory space/or glass house/or field site for experiments" style="whiteSpace=wrap;html=1;rounded=0;" parent="1" vertex="1">
          <mxGeometry x="135" y="526" width="180" height="78" as="geometry" />
        </mxCell>
        <mxCell id="5i5uavK7HOHlnxQsCkVr-9" value="" style="edgeStyle=orthogonalEdgeStyle;rounded=0;orthogonalLoop=1;jettySize=auto;html=1;" parent="1" source="5i5uavK7HOHlnxQsCkVr-6" target="5i5uavK7HOHlnxQsCkVr-8" edge="1">
          <mxGeometry relative="1" as="geometry" />
        </mxCell>
      </root>
    </mxGraphModel>
  </diagram>
</mxfile>
